<?xml version="1.0" encoding="UTF-8"?>
<svg id="Layer_1" xmlns="http://www.w3.org/2000/svg" version="1.1" viewBox="0 0 1035.3 669.4">
  <!-- Generator: Adobe Illustrator 30.0.0, SVG Export Plug-In . SVG Version: 2.1.1 Build 123)  -->
  <defs>
    <style>
      .st0 {
        fill: #814d37;
      }

      .st1 {
        fill: none;
        stroke: #814d37;
        stroke-miterlimit: 10;
        stroke-width: .3px;
      }
    </style>
  </defs>
  <line class="st1" x1="201" y1="148" x2="329.7" y2="148"/>
  <path class="st0" d="M260.6,25h-4.1v22.2h-45.1v-22.2h-4.1v44.1c0,3.5-6.3,4.6-6.3,4.6v1.4h10.5v-24.1h45.1v24.1h4.1V30.7c0-3.5,5.3-4.4,5.3-4.4v-1.4h-7.7"/>
  <path class="st0" d="M443.6,48.3h-18.7c-10,0-15.1-1.9-15.1-9.3s4.5-10.1,13.6-10.1h33.9l2.7-3.8h-36.4c-12,0-17.7,4.6-17.7,13.6s5.5,12.9,17.1,12.9h18.7c9.9,0,15,1.9,15,9.5s-4.4,10.1-13.5,10.1h-34.1s-.3,0-.3,0c-3.3,0-4.3-5.9-4.3-5.9h-1.3v9.6h39.7c12.2,0,17.8-4.6,17.8-13.8s-5.7-12.9-17.1-12.9"/>
  <path class="st0" d="M334.1,35.2v18c0,15.1,11.4,22.7,30.5,22.7s27.9-7.6,27.9-22.7v-28.2h-3.9v28.2c0,13-8.6,19-24,19s-26.6-6-26.6-19v-28.2h-1.8s-7.7,0-7.7,0v1.4s5.5,1,5.5,4.6v4.3Z"/>
  <path class="st0" d="M301.3,71.4h-25.3l22.9-41.5,22.1,40.5,2.7,4.7h4.4l-26.6-48.4c-.5-.9-1.4-1.7-2.5-1.7s-2,.9-2.4,1.7l-26.8,48.4h33.5l-1.9-3.7Z"/>
  <path class="st0" d="M795.9,55c-.8,0-.9-.3-1.1-.6-.2-.4,2.2-10.5,11.9-10.5h14.5c.7,0,2.1.5,2.2,1.9v7.3c-.2,1.3-1.2,1.8-2.3,1.9h-25.3Z"/>
  <path class="st0" d="M674.3,24.1h46.5v9.2c0,1.3-1.1,2.4-2.4,2.4h-13.5c-1.3,0-2.4,1.1-2.4,2.4v37.1s-7.3,0-7.3,0c-2.6,0-4.8-2.2-4.8-4.8v-32.3c0-1.3-1.1-2.4-2.4-2.4h-4.7c-1.3,0-9-.2-9-7.6"/>
  <path class="st0" d="M588.6,51c0-13.3,6.8-15.4,16.3-15.4h2.1c1.3,0,1.2,0,1.2,1.7v36.1c0,2.1-.2,1.7,1.9,1.7h.2c10.6,0,9.9-11.6,9.9-11.6v-13.9c0-12.6,6.3-14,15.7-14h2.1c1.3,0,1.2,0,1.2,1.7v27.8c0,7.9,6,10,8.5,10h3.7v-35.8c0-.2,0-.4,0-.6v-14.7s-14.3,0-14.3,0h-11c-9.7,0-11.1,8.1-11.1,8.1,0,0-.5-8.1-8.5-8.1h-8.3c-19.6,0-21.8,16.7-21.8,25.6v15.7s.4,3.5-2.6,3.5h-3.4v6.4h10c9.1-.2,8.1-11.6,8.1-11.6v-12.5Z"/>
  <path class="st0" d="M834.4,25.2h0c0-1.1.2-1.3-.9-1.3h-52.5c-1,0-1,.3-.9,1.2,0,.2,0,.9,0,1.1,0,0,3.7,3.4,3.7,8.6v23.4c0,5.2,1.4,9.2,4.3,12.2,2.6,2.7,7.4,4.1,12,4.4,0,0,0,0,0,0h.3c.4,0,.9,0,1.3,0h0s32.3.1,32.3.1v-1.8c0-5.1-4.2-9.3-9.3-9.3h-22.5c-4,0-6.5-.4-6.5-5.1v-23.8h0s26.1,0,26.1,0c11.9,0,12.7-9.9,12.7-9.9"/>
  <path class="st0" d="M669.1,25c0-.7-.3-.8-.7-.9-.4-.2-10.9,1.7-11.4,9.5,0,.2,0,1,0,1.2.2.6.8,1.4,2,1.5h7.9c1.4-.1,2-1.1,2.1-1.9v-9.3Z"/>
  <path class="st0" d="M669.1,72.6c0,1.4-1.1,2.5-2.5,2.5h-9.6v-31.8c0-1.4,1.1-2.5,2.5-2.5h9.6"/>
  <path class="st0" d="M778.7,72.9l-14.5-14.1c3.6-.7,6-2.2,8.6-4.8,3.3-3.3,5.1-7.7,5.1-12.3,0-9.7-8-17.6-16.6-17.6h-35.5v51.1h4.8c4.1,0,7.4-3.3,7.4-7.4v-32.9h22c3.8,0,6.9,3.1,6.9,6.8s-.1,1.2-.3,1.8c0,0,0,.2,0,.3-2,6.4-8.9,7.5-10.9,7.6-2.7,0-3.6-.4-6.2-1.6-.6-.3-1.6-1-2.6-1.4-3.2-1.4-6.8.9-7.1,1.4-.2.5.2.8.6,1.1l24.8,24c.3.3.6.4,1,.4h14.7l-2.4-2.3Z"/>
  <path class="st0" d="M536.7,81.8c-2,0-3.9-.7-5.5-2l-.5-.4c-1.4-1.1-2.7-2.2-3.8-3.1,0,0,0,0,0,0-2.7-2.1-4.6-3.4-6.1-4.2-1.5-.8-2.7-1.2-3.9-1.2s-2.4.4-4,1.2c-1.5.8-3.5,2.1-6.3,4.3,0,0,0,0,0,0-1.1.8-2.3,1.8-3.6,2.8,0,0-.9.7-.9.7-1.6,1.3-3.5,1.9-5.5,1.9s-3-.3-4.5-1c-1.2-.6-2.4-1.3-3.3-2.2,0,0,0,0,0,0-.1-.1-.2-.2-.3-.3,0,0-.3-.3-.3-.3-.9-1-1.7-2.1-2.2-3.3-.7-1.5-1-3-1-4.5,0-2.1.8-4.1,2.3-5.7,1.5-1.5,2.7-2.9,3.8-4.1,0,0,0,0,0,0,1.7-2,2.9-3.8,3.7-5.4.8-1.6,1.1-2.9,1.1-4.4s-.4-3-1.2-4.7c-.8-1.8-2.1-3.8-3.9-6.2-1-1.3-2.2-2.8-3.7-4.4-1.4-1.6-2.1-3.6-2.1-5.6,0-1.4.3-2.8.9-4.3.5-1.2,1.2-2.2,2-3.2,0,0,0,0,0-.1.3-.3.9-.9.9-.9,0,0,0,0,.1-.1,1.3-1.1,3.9-2.8,7.4-2.9,2,0,3.9.6,5.5,1.7,1.8,1.2,3.4,2.3,4.8,3.3l.9.6c1.8,1.3,3.3,2.3,4.5,3.1,1.4.9,2.5,1.5,3.3,1.7.5.2.9.2,1.3.2s.8,0,1.3-.2c.5-.2,1.2-.5,2-1,1.5-.8,3.5-2.2,5.9-3.9,0,0,.8-.5.8-.5,1.4-1,3-2.1,4.8-3.3,1.7-1.1,3.6-1.7,5.5-1.7s3,.3,4.4,1c1.2.5,2.3,1.3,3.3,2.2,0,0,.3.3.3.3.9,1,1.7,2.1,2.3,3.3.7,1.5,1.1,3,1.1,4.5,0,2-.7,4-1.9,5.6-1.3,1.7-2.4,3.2-3.4,4.6-2.3,3.2-3.8,5.3-4.7,7-.9,1.7-1.3,3.1-1.3,4.3,0,1.1.3,2.2,1.2,3.6.8,1.4,2.2,3.2,4.2,5.6,1.1,1.3,2.4,2.7,3.9,4.4,1.4,1.5,2.2,3.5,2.2,5.6,0,1.4-.3,2.9-1,4.4-.5,1.2-1.2,2.3-2,3.3,0,0,0,0-.1.1-.3.3-.6.6-.9.9,0,0,0,0-.1,0-1,.8-2.1,1.5-3.2,2-1.4.6-2.8.9-4.2.9h0ZM529.9,72.2c1.4,1.1,2.9,2.3,4.5,3.6.7.6,1.4.8,2.3.8.7,0,1.4-.2,2.2-.5.6-.3,1.3-.7,1.9-1.2.2-.2.4-.4.7-.7.2-.3.8-1,1.2-2,.4-.8.6-1.6.6-2.3,0-.9-.2-1.5-.8-2.1,0,0,0,0,0,0-1.5-1.6-2.8-3.1-3.9-4.4-2.4-2.7-3.8-4.6-4.8-6.4-1.2-2.2-1.9-4.2-1.8-6.2,0-2.1.6-4.2,1.9-6.7,1.3-2.4,3.2-5.1,5.1-7.7,1-1.4,2.2-2.9,3.4-4.6.7-.9.9-1.6.9-2.6,0-.7-.2-1.5-.6-2.3-.3-.7-.8-1.4-1.3-1.9l-.2-.2c-.5-.5-1.2-.9-1.9-1.2-.8-.3-1.5-.5-2.3-.5-1,0-1.8.3-2.7.9-1.8,1.2-3.3,2.3-4.8,3.2l-.8.6c-1.8,1.3-3.4,2.3-4.7,3.2-1.9,1.2-3.1,1.8-4.4,2.3-1,.3-2,.5-3,.5s-2-.2-3-.5c-.9-.3-1.8-.7-2.9-1.4-1.8-1-3.8-2.4-6.3-4.2l-.8-.6c-1.4-1-3-2.1-4.7-3.3-.9-.6-1.7-.8-2.7-.8-1.6,0-3.2.9-4,1.6l-.6.6c-.4.5-.9,1.2-1.1,1.9-.3.8-.5,1.5-.5,2.2,0,.9.3,1.6.8,2.2,1.5,1.7,2.7,3.2,3.8,4.6,0,0,0,0,0,0,2.1,2.7,3.5,5,4.5,7.2,1.1,2.4,1.6,4.6,1.6,6.9s-.5,4.4-1.6,6.7c-1,2-2.4,4.1-4.4,6.5,0,0,0,0,0,0-1.2,1.4-2.5,2.8-4,4.4-.7.7-.8,1.4-.9,2.1,0,.6.2,1.5.6,2.2.3.7.8,1.5,1.3,2,0,0,0,0,0,0,.1.1.2.2.3.3.6.5,1.3,1,2,1.4.8.4,1.6.6,2.3.6.9,0,1.6-.3,2.4-.9l1.2-1c1.2-.9,2.3-1.8,3.4-2.6,0,0,0,0,0,0,2.3-1.7,4.7-3.5,7-4.7,2.3-1.2,4.4-1.8,6.4-1.8s4.1.6,6.3,1.8c1.8,1,3.8,2.3,6.8,4.7,0,0,0,0,0,0"/>
  <path class="st0" d="M516,88.6s-.1,0-.1,0c-1.9-.2-3.7-.9-5.3-2.2-1.6-1.3-2.9-3-4-5.2-1.5-3-2.5-5-3.4-6.5-1.7-3-3-5-4.5-6.5-1.5-1.5-3.2-2.8-6.1-4.4-1.8-1-4-2.2-6.7-3.6h-.3c-2.3-1.3-4-2.8-5.3-4.5-1.3-1.7-2-3.7-2.1-5.7v-.6s0-.1,0-.2c0-1.9.8-3.7,2.1-5.4,1.3-1.6,3-3,5.3-4,2.9-1.4,5-2.4,6.7-3.4,0,0,0,0,0,0,2.8-1.6,4.7-3,6.4-4.7,1.7-1.7,3.1-3.8,4.7-6.6.9-1.6,1.9-3.6,3.1-6.3,1-2.2,2.3-3.9,3.9-5.2,1.6-1.3,3.4-2.1,5.3-2.3,0,0,.1,0,.2,0h.7s.5,0,.5,0c2,.2,3.8.9,5.4,2.2,1.6,1.3,2.9,3.1,4,5.2,1.4,2.9,2.3,4.7,3.2,6.3,1.7,3.1,3.1,5.1,4.8,6.8,1.6,1.6,3.5,3,6.6,4.7,1.8,1,3.9,2.1,6.5,3.4,2.3,1.2,4,2.6,5.3,4.3,1.3,1.7,2,3.6,2,5.6v.6c0,2-.8,3.9-2.1,5.6-1.3,1.6-3,3-5.3,4.1-2.9,1.4-5.1,2.5-6.9,3.6-2.7,1.5-4.4,2.8-5.9,4.3-1.5,1.6-2.9,3.6-4.7,6.7-1,1.7-2.1,3.8-3.5,6.6-1.1,2.1-2.4,3.9-4,5.1-1.6,1.3-3.4,2.1-5.3,2.2,0,0-.1,0-.1,0,0,0-.7,0-.7,0h-.5ZM494.7,40.8c-1.8,1-3.9,2.1-7,3.6-1.5.7-2.7,1.6-3.5,2.6-.7.9-1,1.7-1.1,2.6v.3c0,.9.4,1.9,1,2.8.8,1.1,2.1,2.1,3.6,2.9,2.9,1.5,5.1,2.7,7.1,3.8,3.3,1.9,5.4,3.4,7.2,5.2,1.9,1.9,3.5,4.1,5.4,7.6.9,1.7,2,3.7,3.5,6.7.7,1.5,1.7,2.7,2.7,3.5.8.7,1.7,1,2.6,1.1h.8c.8,0,1.7-.5,2.5-1.1,1-.8,1.9-2,2.7-3.5,1.5-2.9,2.6-5,3.6-6.8,2-3.5,3.6-5.8,5.5-7.7,1.8-1.9,3.9-3.4,7-5.2,1.9-1.1,4.2-2.2,7.1-3.7,0,0,0,0,0,0,1.4-.7,2.7-1.7,3.5-2.7.7-.9,1-1.8,1.1-2.7h0c0-1.2-.4-2.1-1-3-.8-1.1-2-2-3.6-2.8-2.6-1.3-4.8-2.5-6.6-3.5-3.5-1.9-5.8-3.6-7.7-5.5-2-2-3.7-4.3-5.6-7.9-1-1.8-2-3.9-3.3-6.5-.7-1.5-1.7-2.7-2.6-3.5-.9-.7-1.7-1.1-2.6-1.1h-.8c-.8,0-1.7.5-2.5,1.1-1,.8-1.9,2-2.6,3.5-1.3,2.8-2.3,4.8-3.3,6.5-1.8,3.3-3.5,5.7-5.5,7.7-2,2-4.3,3.8-7.5,5.6,0,0,0,0,0,0"/>
  <path class="st0" d="M396.1,163.6v-14.2h19.7v-3.4h-19.7v-13.6h22.1v-3.5h-26.1v38.1h27v-3.5h-22.9ZM431,167.1h15.5c4,0,7.6-.8,10.7-2.4,3.1-1.6,5.5-3.9,7.2-6.7,1.7-2.9,2.6-6.2,2.6-9.9s-.9-7-2.6-9.9c-1.7-2.9-4.1-5.1-7.2-6.8s-6.6-2.4-10.7-2.4h-15.5v38.1ZM435,163.6v-31.2h11.3c3.3,0,6.3.7,8.8,2,2.5,1.3,4.4,3.2,5.8,5.5,1.4,2.3,2.1,5,2.1,8.1s-.7,5.7-2.1,8.1c-1.4,2.3-3.3,4.2-5.8,5.5-2.5,1.3-5.4,2-8.8,2h-11.3ZM478.4,167.1h4v-38.1h-4v38.1ZM507.2,167.1h4v-34.6h13.4v-3.5h-30.8v3.5h13.4v34.6ZM538.4,167.1h4v-38.1h-4v38.1ZM574,167.4c3.8,0,7.2-.8,10.2-2.5,3-1.7,5.4-4,7.2-6.9,1.7-3,2.6-6.3,2.6-9.9s-.9-7-2.6-9.9c-1.7-3-4.1-5.3-7.2-6.9-3-1.7-6.4-2.5-10.2-2.5s-7.2.8-10.3,2.5c-3.1,1.7-5.5,4-7.2,6.9s-2.6,6.2-2.6,9.9.9,7,2.6,9.9c1.7,2.9,4.1,5.2,7.2,6.9,3.1,1.7,6.5,2.5,10.3,2.5M574,163.8c-3,0-5.8-.7-8.2-2-2.4-1.4-4.4-3.2-5.8-5.7-1.4-2.4-2.1-5.1-2.1-8.1s.7-5.7,2.1-8.1c1.4-2.4,3.3-4.3,5.8-5.7,2.4-1.4,5.2-2,8.2-2s5.7.7,8.2,2c2.4,1.4,4.3,3.2,5.7,5.7,1.4,2.4,2.1,5.1,2.1,8.1s-.7,5.7-2.1,8.1c-1.4,2.4-3.3,4.3-5.7,5.7-2.4,1.4-5.2,2-8.2,2M633.3,128.9v30.9l-24.6-30.9h-3.3v38.1h4v-30.9l24.5,30.9h3.3v-38.1h-4Z"/>
  <path class="st0" d="M646.7,567.1c5.4-11.3,12.2-21.1,20.5-29.3,8.3-8.2,17.5-14.7,27.7-19.4,10.1-4.7,19.8-7.1,29.1-7.1s15.7,1.7,22,5.2,11.4,7.9,15.5,13.3,7.1,11.3,9.1,17.8c1.9,6.5,2.9,12.7,2.9,18.8,0,12.5-2.7,24.3-8.1,35.4-5.4,11.1-12.2,20.9-20.4,29.3-8.2,8.4-17.3,15-27.3,19.9-10,4.9-19.6,7.3-28.6,7.3s-14.7-1.5-20.9-4.5c-6.1-3-11.4-7-15.9-12-4.4-5-7.8-10.7-10.2-17.3-2.4-6.6-3.6-13.5-3.6-20.9,0-12.9,2.7-25.1,8.1-36.4M667.9,646.1c5.3,5.3,12,7.9,20.2,7.9s12.9-1.9,18.8-5.8c5.8-3.9,11.1-9,15.9-15.4,4.7-6.4,8.9-13.4,12.6-21.2,3.7-7.8,6.7-15.5,9.2-23.3,2.5-7.8,4.4-15.1,5.7-22,1.3-6.9,1.9-12.5,1.9-16.8,0-10.4-2.2-18.5-6.6-24.6-4.4-6-12.1-9.1-23.1-9.1s-12.2,1.8-17.8,5.5c-5.6,3.7-10.7,8.5-15.4,14.4-4.6,5.9-8.8,12.7-12.5,20.2-3.7,7.6-6.7,15.3-9.2,23.1-2.5,7.9-4.4,15.5-5.7,23-1.3,7.4-1.9,14-1.9,19.6,0,11,2.6,19.1,7.9,24.4M581.3,625.2c-1.1,3.2-2.2,6.5-3.2,9.9-1.1,3.3-1.6,6.5-1.6,9.5s.8,4.8,2.3,6.6c1.5,1.8,3.8,2.8,6.8,2.8s6.8-1.2,10.2-3.6c3.3-2.4,6.4-5.1,9.2-8.2,2.8-3.1,5.2-6.3,7.1-9.5,1.9-3.2,3.3-5.8,4.2-7.8l3.9,1.6c-.9,1.7-2.2,4.4-4,7.9-1.8,3.6-4.4,7.1-7.6,10.7-3.2,3.6-7.2,6.6-12,9.2-4.7,2.6-10.4,3.9-16.8,3.9s-12.8-1.5-17-4.4c-4.2-2.9-6.3-7.8-6.3-14.7s.6-7.7,1.9-12.1c1.3-4.4,2.6-8.5,3.9-12.1l60.8-169.2h-28.8l1.3-4.5h51.4l-65.6,184.1ZM519.5,630.9c-2.6,4-6.1,8-10.7,12s-10.1,7.6-16.7,10.7c-6.6,3.1-14.5,4.7-23.8,4.7s-17.1-1.5-23.5-4.5-11.5-6.9-15.5-11.6c-4-4.7-6.9-10-8.7-15.7-1.8-5.7-2.8-11.3-2.8-16.7,0-10.8,2.6-21.9,7.9-33.5s12.2-22.1,20.7-31.7c8.5-9.6,18.2-17.5,29-23.8,10.8-6.3,21.8-9.4,33-9.4s8.6.5,12.9,1.5c4.3,1,8.2,2.4,11.6,4.4,3.4,1.9,6.3,4.4,8.4,7.4,2.2,3,3.2,6.7,3.2,11s-1.6,11-4.7,15.4c-3.1,4.4-7.2,8.2-12.1,11.3-5,3.1-10.4,5.8-16.3,7.9s-11.7,3.8-17.3,5c-5.6,1.2-10.7,2.1-15.4,2.6-4.6.5-8,.8-10.2.8-3.7,0-7.2-.1-10.7-.3-3.4-.2-6.5-.5-9.1-1-2.4,6.9-4.4,13.7-6,20.5-1.6,6.8-2.4,14-2.4,21.5,0,11.6,3,20.3,9.1,26,6,5.7,13.7,8.6,23,8.6s13-1.3,18.3-4c5.3-2.7,9.9-5.9,13.9-9.5,4-3.7,7.3-7.4,10-11.2,2.7-3.8,4.9-6.7,6.6-8.9l3.9,2.3c-1.3,1.5-3.2,4.3-5.8,8.3M520.8,520.4c-2.6-3-6.9-4.5-12.9-4.5s-13.1,1.9-19.3,5.8c-6.1,3.9-11.7,8.7-16.7,14.4-5,5.7-9.3,11.9-12.9,18.4-3.7,6.6-6.5,12.7-8.4,18.3,5,.9,10.5,1.3,16.5,1.3s15.1-1.2,22-3.6c6.9-2.4,13-5.5,18.3-9.4,5.3-3.9,9.5-8.4,12.6-13.6,3.1-5.2,4.7-10.6,4.7-16.2s-1.3-8-3.9-11M303.8,549.2l.6.3c2.6-4.1,5.8-8.4,9.5-12.9,3.8-4.5,7.9-8.6,12.5-12.3,4.5-3.7,9.4-6.7,14.7-9.2,5.3-2.5,10.8-3.7,16.7-3.7s12.6,1.2,17.6,3.7c5.1,2.5,9.3,5.7,12.8,9.7,3.4,4,6,8.6,7.8,13.8,1.7,5.2,2.6,10.6,2.6,16.2,0,8.6-1.6,17.2-4.9,25.7-3.2,8.5-7.6,16.6-12.9,24.3-5.4,7.7-11.5,14.8-18.4,21.4-6.9,6.6-14.1,12.2-21.7,17-7.6,4.7-15,8.5-22.5,11.2-7.4,2.7-14.4,4-20.9,4s-8.4-.7-12.8-2.1c-4.4-1.4-8.5-3.6-12.1-6.6-3.7-3-6.7-6.9-9.1-11.6-2.4-4.7-3.6-10.6-3.6-17.5s.7-9.3,2.1-15,3-10.7,4.7-15l51.7-144.7h-28.5l1.3-4.5h51.8l-39.1,108.1ZM297.9,654c6.5,0,13-1.9,19.6-5.8,6.6-3.9,12.8-9.1,18.8-15.5,5.9-6.5,11.5-13.8,16.7-22,5.2-8.2,9.7-16.7,13.4-25.4,3.8-8.7,6.7-17.4,8.9-25.9s3.2-16.2,3.2-23.1-1.9-11.8-5.8-15.2c-3.9-3.5-9.2-5.2-15.9-5.2s-12.2,1.9-18.4,5.7c-6.3,3.8-12.3,8.7-18.1,14.9-5.8,6.2-11.3,13.3-16.5,21.4-5.2,8.1-9.7,16.5-13.4,25.1-3.8,8.6-6.8,17.2-9.1,25.7-2.3,8.5-3.4,16.4-3.4,23.8,0,14.5,6.7,21.7,20.1,21.7"/>
  <path class="st0" d="M575.2,425.3h37.5v-.3c-2.7-1.3-3.3-4.3-3.3-11.6v-201.4h-2.6l-88.9,136.4-95.2-136.4-4.6.3v189.4c0,14.6-4,20.2-13.3,23.6h29.2c-9.3-3.3-13.3-9-13.3-23.6v-138.3l79.3,112.5h2.3l76.3-116.8v154.3c0,7.3-.7,10.3-3.3,11.6v.3ZM789.5,269.7c0-25.2-23.6-56.1-70.3-56.1h-74.3v.3c2.7,1.3,3.3,4.3,3.3,11.6v187.5c0,4-.3,6.3-.7,8.3-.7,1.7-1.3,3-2.7,3.7h37.2c-2-1.3-3-4-3-9.6v-189.8c0-7.3.7-9.3,3-9.3h37.2c27.5,0,38.5,29.5,38.8,53.4.3,23.5-8.6,52.3-36.9,57.9l-1.3.5c46.8,0,69.7-28.9,69.7-58.4M910.6,427c-97.2,0-96.2-215,0-215s96.9,215,0,215M910.6,209.3h-.3c-140,0-139.7,220.3.3,220.3s140-220.3,0-220.3"/>
  <path class="st0" d="M736.4,326.5l.4-2.7c-28,4.8-55.7,20.6-60,51.4-.4,2.6-.3,5-.3,7.4h2.6c0-2.4,0-4.7.4-7.1,4.1-29.1,30.6-44,57-49.1"/>
  <path class="st0" d="M209,342.5c-1.3,13.7-4.8,25.9-10.5,36.4-5.7,10.6-12.8,19.4-21.3,26.6-8.5,7.2-18,12.6-28.6,16.1-10.5,3.6-21.3,5.4-32.3,5.4s-23.6-2.2-35.2-6.7c-11.6-4.5-21.9-11.2-31-20.1-9-8.9-16.4-20.2-22-33.8-5.6-13.6-8.4-29.7-8.4-48.2s2.2-26.8,6.5-39.8c4.3-13.1,10.7-24.7,19.2-34.8,8.5-10.1,19.1-18.3,31.8-24.5,12.7-6.2,27.5-9.3,44.5-9.3h.3c18.9,0,35.5,3.7,49.9,11.1,14.3,7.4,25.8,17.1,34.4,29.1l-22.3,16.3c-2.6-7.8-5.8-15-9.5-21.5-3.8-6.5-8.2-12.2-13.2-17-5.1-4.8-10.7-8.5-16.9-11.3-6.2-2.7-13.2-4.1-21-4.1-11.6,0-21.9,2.8-30.8,8.5-8.9,5.7-16.4,13.2-22.4,22.5-6,9.4-10.6,20.1-13.7,32.3-3.1,12.2-4.7,24.9-4.7,38.2s2.3,31.6,6.8,43.9c4.5,12.3,10.5,22.5,17.9,30.5,7.4,8,15.9,14,25.3,18,9.5,3.9,19.1,5.9,29,5.9s17.5-1.5,26.1-4.6c8.6-3.1,16.4-7.5,23.4-13.4,7-5.9,13-13.2,17.9-21.9,5-8.7,8.2-18.7,9.7-30.1h1Z"/>
  <path class="st0" d="M346.4,425.4h41.3c-1.1-.9-2.3-2.2-3.5-4-1.2-1.8-2.6-4.4-4.2-8l-87.2-205.1h-2.7l-77.9,198.3c-2,4.4-4,8.1-6,11-2.4,3.5-5.7,5.8-9.6,7.2v.3h27.3v-.3c-4.7-1.6-7.5-4.2-8.6-7.8-.9-2.8-.7-6.5.6-11.2l5.8-16.1,2.8-7.1,38.2-96.3,13.3-33.4c.4-.7.9-1,1.3-1,.7,0,1,.3,1,1l29.6,69.7h0l1,2.4s0,0,0,0l9.7,22.8h0s6.9,16.2,6.9,16.2c0,0,0,0-.1-.1l13,30.9,7.8,18.3c.4,1.1.8,2.1,1.1,3h0c.8,2.3,1.2,4.2,1.2,5.6s-.7,3-2,3.7"/>
  <path class="st0" d="M478,344.9l1.6-2c-26.6-39.6-71.3-64.3-119.2-64.3s-114.3,38.4-135.2,95.6l2.3.8c20.6-56.3,74-94,132.9-94s91.5,24.5,117.6,63.9"/>
  <line class="st1" x1="699.8" y1="148" x2="834.4" y2="148"/>
</svg>